<svg xmlns="http://www.w3.org/2000/svg" viewBox="0 0 32 32" width="32" height="32">
<style>.o{stroke:#0b0822;stroke-width:1.5;stroke-linejoin:round;stroke-linecap:round}
.c{fill:#f1e3bd}.t{fill:#19b5a5}.m{fill:#e2366f}.a{fill:#f4a81d}
.b{fill:#4162e0}.r{fill:#d4562f}.g{fill:#9a93d0}.k{fill:#0b0822}
.s{fill:#1b1552}.l{fill:#9fe6dd}
.h{fill:none;stroke:#fff6dc;stroke-width:1.2;stroke-linecap:round;opacity:.85}
.h2{fill:none;stroke:#0b0822;stroke-width:1;stroke-linecap:round}
.zz{fill:none;stroke:#e2366f;stroke-width:1.6}
.zt{fill:none;stroke:#19b5a5;stroke-width:1.6}
.zc{fill:none;stroke:#f1e3bd;stroke-width:1.6}
.n{fill:none}</style>
<circle class="o b" cx="16" cy="16" r="13"/>
<ellipse fill="none" stroke="#fff6dc" stroke-width="0.5" cx="16" cy="16" rx="5.5" ry="13"/><ellipse fill="none" stroke="#fff6dc" stroke-width="0.5" cx="16" cy="16" rx="10.5" ry="13"/>
<path fill="none" stroke="#fff6dc" stroke-width="0.5" d="M3 16C11.7 17.33 20.3 17.33 29 16M4.9 9.5C12.3 10.83 19.7 10.83 27.1 9.5M4.9 22.5C12.3 23.83 19.7 23.83 27.1 22.5M16 3V29"/>
<path class="t" stroke="#0b0822" stroke-width="0.8" stroke-linejoin="round" d="M6.5 9L8 7.5L11 6.8L13.5 7.5L14.5 9L13 10L13.5 11.5L12 13.2L10.8 12.6L10 14L8.8 13L8.3 11L6.6 10.5Z"/>
<path class="t" stroke="#0b0822" stroke-width="0.8" stroke-linejoin="round" d="M14.5 5.5L16.5 5L17 6.5L15.5 7.5Z"/>
<path class="t" stroke="#0b0822" stroke-width="0.8" stroke-linejoin="round" d="M10.5 15.5L13 15L15 16.5L14.5 18.5L13 20L12.6 22.5L11.5 25L10.6 22.5L10.2 19.5L9.6 17.5Z"/>
<path class="t" stroke="#0b0822" stroke-width="0.8" stroke-linejoin="round" d="M18.5 12.5L21 12L23.5 13.2L24.8 15.5L23.5 18L22.2 21L21 23L19.8 21L19.6 18L18.4 16L17.8 14Z"/>
<path class="t" stroke="#0b0822" stroke-width="0.8" stroke-linejoin="round" d="M17.5 8.5L19 7.3L21 7.5L22.5 8.5L21.5 10L22.5 11L20 11.3L18.5 10.8Z"/>
<circle class="o n" cx="16" cy="16" r="13"/>
</svg>
